<svg width="35" height="33" viewBox="0 0 35 33" fill="none" xmlns="http://www.w3.org/2000/svg">
<path d="M24.2637 1.18262C22.4165 1.39609 20.7176 2.29818 19.5061 3.70893C18.915 4.36206 18.4703 5.13396 18.2017 5.97293C17.9331 6.81189 17.8468 7.69856 17.9487 8.57356C18.8775 8.55508 19.7904 8.32952 20.6209 7.91336C21.4513 7.49719 22.1785 6.90091 22.7492 6.16799C23.3233 5.48117 23.7532 4.68582 24.0134 3.82932C24.2736 2.97282 24.3588 2.07271 24.2637 1.18262Z" fill="white"/>
<path d="M30.8633 11.4883C30.1544 10.5634 29.2515 9.80505 28.218 9.26666C27.1846 8.72827 26.0457 8.4229 24.8815 8.37207C22.0739 8.37207 20.8849 9.69102 18.9348 9.69102C16.9235 9.69102 15.3952 8.37666 12.9667 8.37666C11.6442 8.44303 10.3579 8.83064 9.21894 9.50597C8.07999 10.1813 7.12276 11.124 6.43009 12.2525C4.16512 15.6958 4.55331 22.1713 8.2228 27.6885C9.53563 29.6615 11.2901 31.8807 13.5826 31.9005C15.6244 31.9204 16.1991 30.6167 18.9638 30.603C21.7285 30.5892 22.2543 31.9173 24.29 31.8959C26.5825 31.8791 28.4348 29.4201 29.7476 27.447C30.5399 26.2735 31.2171 25.0262 31.7696 23.7225C30.5513 23.2801 29.4869 22.495 28.7043 21.4618C27.9218 20.4285 27.4545 19.1912 27.3588 17.8986C27.263 16.606 27.5429 15.3133 28.1646 14.176C28.7863 13.0388 29.7235 12.1054 30.8633 11.4883Z" fill="white"/>
</svg>
