<svg width="33" height="33" viewBox="0 0 33 33" fill="none" xmlns="http://www.w3.org/2000/svg">
<g clip-path="url(#clip0_11_1916)">
<path d="M32.9768 16.4884C32.9768 7.62616 25.7925 0.441895 16.9303 0.441895C8.06805 0.441895 0.883789 7.62616 0.883789 16.4884C0.883789 24.4977 6.7518 31.1362 14.423 32.34V21.1269H10.3487V16.4884H14.423V12.9532C14.423 8.9315 16.8187 6.71006 20.484 6.71006C22.2397 6.71006 24.076 7.02347 24.076 7.02347V10.9724H22.0526C20.0592 10.9724 19.4376 12.2093 19.4376 13.4783V16.4884H23.888L23.1765 21.1269H19.4376V32.34C27.1089 31.1362 32.9768 24.4977 32.9768 16.4884Z" fill="#1877F2"/>
<path d="M23.1764 21.1267L23.8879 16.4883H19.4375V13.4782C19.4375 12.2092 20.0591 10.9723 22.0525 10.9723H24.0759V7.02337C24.0759 7.02337 22.2395 6.70996 20.4839 6.70996C16.8186 6.70996 14.4229 8.9314 14.4229 12.9531V16.4883H10.3486V21.1267H14.4229V32.3399C15.2399 32.4681 16.0772 32.5348 16.9302 32.5348C17.7832 32.5348 18.6205 32.4681 19.4375 32.3399V21.1267H23.1764Z" fill="white"/>
</g>
<defs>
<clipPath id="clip0_11_1916">
<rect x="0.883789" y="0.441895" width="32.093" height="32.093" rx="10.6977" fill="white"/>
</clipPath>
</defs>
</svg>
