<svg width="35" height="33" viewBox="0 0 35 33" fill="none" xmlns="http://www.w3.org/2000/svg">
<g clip-path="url(#clip0_11_1921)">
<path fill-rule="evenodd" clip-rule="evenodd" d="M8.10493 16.4885C8.10493 15.4462 8.28728 14.4468 8.61314 13.5096L2.91263 9.37988C1.8016 11.5198 1.17578 13.9313 1.17578 16.4885C1.17578 19.0436 1.80107 21.4534 2.91025 23.5921L8.60759 19.4543C8.2849 18.5214 8.10493 17.5257 8.10493 16.4885Z" fill="#FBBC05"/>
<path fill-rule="evenodd" clip-rule="evenodd" d="M18.1132 7.00642C20.4999 7.00642 22.6556 7.80875 24.3494 9.12155L29.2766 4.45352C26.2742 1.97358 22.4247 0.441895 18.1132 0.441895C11.4195 0.441895 5.6667 4.07342 2.91211 9.3798L8.61235 13.5095C9.92582 9.72706 13.6699 7.00642 18.1132 7.00642Z" fill="#EA4335"/>
<path fill-rule="evenodd" clip-rule="evenodd" d="M18.1132 25.9704C13.6701 25.9704 9.92609 23.2497 8.61262 19.4673L2.91211 23.5963C5.6667 28.9034 11.4195 32.5349 18.1132 32.5349C22.2444 32.5349 26.1888 31.1431 29.149 28.5356L23.7381 24.5671C22.2114 25.4795 20.2888 25.9704 18.1132 25.9704Z" fill="#34A853"/>
<path fill-rule="evenodd" clip-rule="evenodd" d="M34.2811 16.4885C34.2811 15.5403 34.127 14.519 33.8961 13.571H18.1133V19.7708H27.1982C26.7439 21.8846 25.5076 23.5096 23.7382 24.5672L29.1491 28.5357C32.2586 25.7977 34.2811 21.7189 34.2811 16.4885Z" fill="#4285F4"/>
</g>
<defs>
<clipPath id="clip0_11_1921">
<rect width="33.8278" height="32.093" fill="white" transform="translate(0.814453 0.441895)"/>
</clipPath>
</defs>
</svg>
